<svg width="57" height="57" viewBox="0 0 57 57" fill="none" xmlns="http://www.w3.org/2000/svg">
<g clip-path="url(#clip0_7_1087)">
<path d="M42.6018 27.1792L42.5836 27.1726C41.2613 26.6979 40.8336 26.2153 40.7923 26.0265C40.7522 25.8433 40.9175 25.2603 41.8303 24.3653C42.2628 23.9412 42.8168 23.599 43.4766 23.3483C46.1661 22.3261 47.8759 20.0301 48.4212 16.7086C48.7614 14.6367 48.5307 12.7872 48.4694 12.3674C48.2414 9.03423 52.2694 5.69069 53.8473 4.68043L56.9488 2.70829L53.4278 1.65391C48.2198 0.0945091 43.0054 0.828073 37.9301 3.83456C33.8302 6.26301 30.7325 9.60811 28.6826 11.8217L28.4425 12.0808C28.2237 12.3165 27.9815 12.281 27.8166 12.209C27.6568 12.1395 27.471 11.9914 27.4939 11.6808C27.6964 8.9208 29.3356 5.42206 29.3517 5.38813L31.9041 0L26.9145 3.26325C20.73 7.30787 15.8809 12.8884 15.7146 20.2779C11.9559 20.85 8.34068 22.5791 5.45211 25.4677C-1.75174 32.6717 -1.75174 44.3932 5.45211 51.5972C9.05409 55.1992 13.7855 57.0001 18.5169 57.0001C28.7632 57.0001 37.0205 48.7062 36.9837 38.4654C41.2993 38.1455 45.428 36.648 49.0163 34.0852C52.0991 31.8833 53.7172 29.6609 53.7846 29.5674L56.5197 25.7705L51.9943 26.9614C46.3976 28.4341 42.7758 27.2389 42.6018 27.1792V27.1792ZM29.2065 49.2217C23.3125 55.1159 13.7221 55.1159 7.82771 49.2217C1.93367 43.3276 1.93367 33.7371 7.82771 27.843C14.029 21.6417 24.3234 21.9595 30.0956 28.814C35.1144 34.7998 34.7539 43.6741 29.2065 49.2217V49.2217ZM36.6757 35.1214C35.0899 26.6927 27.8505 20.3351 19.0804 20.066C19.2483 16.2184 21.0445 12.6611 24.4432 9.43701C24.2999 10.1023 24.192 10.7786 24.1437 11.435C24.021 13.1063 24.9365 14.6191 26.4761 15.2893C28.0222 15.9624 29.7609 15.5995 30.9058 14.3651L31.1476 14.1041C34.6433 10.3292 40.7947 3.68294 49.0788 4.24854C47.0728 6.20613 44.8396 9.20824 45.1254 12.6947L45.1312 12.7644L45.1427 12.8335C45.1526 12.8926 46.0843 18.7636 42.2835 20.2081C41.1877 20.6246 40.244 21.2161 39.4786 21.9667C37.4279 23.9774 37.2767 25.6748 37.5108 26.7447C37.8536 28.311 39.1776 29.5185 41.4459 30.3334C41.7043 30.4271 43.9139 31.1837 47.4933 31.036C45.0693 32.8572 41.4356 34.7878 36.6757 35.1214Z" fill="black"/>
<path d="M11.3875 29.0292L13.7625 26.6541L16.1376 29.0292L13.7625 31.4042L11.3875 29.0292Z" fill="black"/>
<path d="M6.63702 33.7783L9.01207 31.4033L11.3871 33.7783L9.01207 36.1534L6.63702 33.7783Z" fill="black"/>
<path d="M13.7614 36.1558L16.1365 33.7807L18.5115 36.1558L16.1365 38.5308L13.7614 36.1558Z" fill="black"/>
</g>
<defs>
<clipPath id="clip0_7_1087">
<rect width="57" height="57" fill="white"/>
</clipPath>
</defs>
</svg>
